<?xml version="1.0" encoding="utf-8"?>
<!-- Generator: Adobe Illustrator 16.0.0, SVG Export Plug-In . SVG Version: 6.00 Build 0)  -->
<!DOCTYPE svg PUBLIC "-//W3C//DTD SVG 1.1//EN" "http://www.w3.org/Graphics/SVG/1.1/DTD/svg11.dtd">
<svg version="1.1" id="Layer_1" xmlns="http://www.w3.org/2000/svg" xmlns:xlink="http://www.w3.org/1999/xlink" x="0px" y="0px"
	 width="413px" height="308.842px" viewBox="0 0 413 308.842" enable-background="new 0 0 413 308.842" xml:space="preserve">
<g>
	<defs>
		<rect id="SVGID_1_" width="413" height="309"/>
	</defs>
	<clipPath id="SVGID_2_">
		<use xlink:href="#SVGID_1_"  overflow="visible"/>
	</clipPath>
	<g opacity="0.4" clip-path="url(#SVGID_2_)">
		<rect x="559" y="-128" fill="#9CCAE9" width="12" height="493"/>
		<rect x="547" fill="#C3DDF1" width="12" height="492"/>
		<rect x="523" y="-78" fill="#DBEAF6" width="12" height="291"/>
		<rect x="510" y="-128" fill="#9CCAE9" width="13" height="493"/>
		<rect x="497" y="141" fill="#C3DDF1" width="13" height="498"/>
		<rect x="473" y="23" fill="#9CCAE9" width="12" height="497"/>
		<rect x="461" y="-98" fill="#DBEAF6" width="12" height="494"/>
		<rect x="449" y="-128" fill="#9CCAE9" width="12" height="493"/>
		<rect x="437" fill="#C3DDF1" width="12" height="492"/>
		<g>
			<rect x="425" y="83" fill="#9CCAE9" width="12" height="497"/>
			<rect x="425" y="-126" fill="#E6F0F9" width="12" height="209"/>
		</g>
		<g>
			<rect x="535" y="83" fill="#9CCAE9" width="12" height="497"/>
			<rect x="535" y="-126" fill="#E6F0F9" width="12" height="209"/>
		</g>
		<rect x="413" y="-78" fill="#DBEAF6" width="12" height="342"/>
		<rect x="400" y="-128" fill="#9CCAE9" width="13" height="493"/>
		<g>
			<rect x="388" y="141" fill="#C3DDF1" width="12" height="498"/>
			<rect x="388" y="-128" fill="#ADD2EC" width="12" height="269"/>
		</g>
		<rect x="485" y="-128" fill="#ADD2EC" width="12" height="269"/>
		<rect x="375" y="23" fill="#9CCAE9" width="13" height="497"/>
		<rect x="363" y="-98" fill="#DBEAF6" width="12" height="494"/>
		<polygon fill="#9CCAE9" points="353,364.756 353,-128.202 363,-125.057 363,367.901 		"/>
		<rect x="341" fill="#C3DDF1" width="12" height="492"/>
		<rect x="317" y="-78" fill="#DBEAF6" width="12" height="291"/>
		<rect x="305" y="-128" fill="#9CCAE9" width="12" height="493"/>
		<rect x="292" y="141" fill="#C3DDF1" width="13" height="498"/>
		<rect x="268" y="23" fill="#9CCAE9" width="12" height="497"/>
		<rect x="256" y="-98" fill="#DBEAF6" width="12" height="494"/>
		<rect x="243" y="-128" fill="#9CCAE9" width="13" height="493"/>
		<rect x="231" fill="#C3DDF1" width="12" height="492"/>
		<g>
			<rect x="219" y="83" fill="#9CCAE9" width="12" height="497"/>
			<rect x="219" y="-126" fill="#E6F0F9" width="12" height="209"/>
		</g>
		<g>
			<rect x="329" y="83" fill="#9CCAE9" width="12" height="497"/>
			<rect x="329" y="-126" fill="#E6F0F9" width="12" height="209"/>
		</g>
		<rect x="207" y="-78" fill="#DBEAF6" width="12" height="342"/>
		<rect x="195" y="-128" fill="#9CCAE9" width="12" height="493"/>
		<g>
			<rect x="182" y="141" fill="#C3DDF1" width="13" height="498"/>
			<rect x="182" y="-128" fill="#ADD2EC" width="13" height="269"/>
		</g>
		<rect x="280" y="-128" fill="#ADD2EC" width="12" height="269"/>
		<rect x="170" y="23" fill="#9CCAE9" width="12" height="497"/>
		<rect x="158" y="-98" fill="#DBEAF6" width="12" height="494"/>
		<rect x="146" y="-128" fill="#9CCAE9" width="12" height="493"/>
		<rect x="134" fill="#C3DDF1" width="12" height="492"/>
		<rect x="109" y="-78" fill="#DBEAF6" width="13" height="291"/>
		<rect x="97" y="-128" fill="#9CCAE9" width="12" height="493"/>
		<rect x="84" y="141" fill="#C3DDF1" width="13" height="498"/>
		<rect x="60" y="23" fill="#9CCAE9" width="12" height="497"/>
		<rect x="48" y="-98" fill="#DBEAF6" width="12" height="494"/>
		<rect x="-61" y="23" fill="#9CCAE9" width="12" height="497"/>
		<rect x="-73" y="-98" fill="#DBEAF6" width="12" height="494"/>
		<rect x="36" y="-128" fill="#9CCAE9" width="12" height="493"/>
		<rect x="24" fill="#C3DDF1" width="12" height="492"/>
		<rect x="-85" fill="#C3DDF1" width="12" height="492"/>
		<g>
			<rect x="12" y="83" fill="#9CCAE9" width="12" height="497"/>
			<rect x="12" y="-126" fill="#E6F0F9" width="12" height="209"/>
		</g>
		<g>
			<rect x="122" y="83" fill="#9CCAE9" width="12" height="497"/>
			<rect x="122" y="-126" fill="#E6F0F9" width="12" height="209"/>
		</g>
		<rect y="-78" fill="#DBEAF6" width="12" height="342"/>
		<rect x="-12" y="-128" fill="#9CCAE9" width="12" height="493"/>
		<g>
			<rect x="-26" y="141" fill="#C3DDF1" width="14" height="498"/>
			<rect x="-26" y="-128" fill="#ADD2EC" width="14" height="269"/>
		</g>
		<rect x="72" y="-128" fill="#ADD2EC" width="12" height="269"/>
		<rect x="-38" y="23" fill="#9CCAE9" width="12" height="497"/>
		<rect x="-50" y="-98" fill="#DBEAF6" width="12" height="494"/>
	</g>
</g>
<rect x="670" y="-58.158" fill="none" width="384.07" height="311"/>
</svg>
