<?xml version="1.0" encoding="utf-8"?>
<!-- Generator: Adobe Illustrator 13.0.0, SVG Export Plug-In  -->
<!DOCTYPE svg PUBLIC "-//W3C//DTD SVG 1.1 Tiny//EN" "http://www.w3.org/Graphics/SVG/1.1/DTD/svg11-tiny.dtd" [
	<!ENTITY ns_flows "http://ns.adobe.com/Flows/1.0/">
]>
<svg version="1.1" baseProfile="tiny"
	 xmlns="http://www.w3.org/2000/svg" xmlns:xlink="http://www.w3.org/1999/xlink" xmlns:a="http://ns.adobe.com/AdobeSVGViewerExtensions/3.0/"
	 x="0px" y="0px" width="40px" height="40px" viewBox="0 0 40 40" xml:space="preserve">
<defs>
</defs>
<path fill="#B6E1F8" d="M19.999,11.499c-5.187,0.012-7.864-2.654-10.339-5.146l0,0C7.146,3.846,4.834,1.511,0,1.499l0,0v-1
	c5.205-0.012,7.892,2.654,10.369,5.147l0,0c2.514,2.508,4.816,4.841,9.63,4.853l0,0c4.813-0.012,7.127-2.347,9.646-4.853l0,0
	c2.48-2.493,5.168-5.16,10.354-5.147l0,0V1.5c-4.813,0.01-7.128,2.345-9.646,4.853l0,0c-2.476,2.488-5.155,5.146-10.319,5.146l0,0
	C20.023,11.499,20.011,11.499,19.999,11.499L19.999,11.499z M0,1.499V1.5V1.499L0,1.499z"/>
<path fill="#B6E1F8" d="M19.999,15.499c-5.187,0.013-7.864-2.654-10.339-5.146l0,0C7.146,7.847,4.834,5.511,0,5.5l0,0V4.499
	c5.205-0.013,7.892,2.654,10.369,5.147l0,0c2.514,2.508,4.816,4.84,9.63,4.853l0,0c4.813-0.013,7.127-2.347,9.646-4.853l0,0
	C32.125,7.153,34.813,4.488,40,4.499l0,0V5.5c-4.813,0.01-7.128,2.347-9.646,4.853l0,0c-2.476,2.488-5.155,5.146-10.319,5.146l0,0
	C20.023,15.499,20.011,15.499,19.999,15.499L19.999,15.499z"/>
<path fill="#B6E1F8" d="M19.999,19.499c-5.187,0.012-7.864-2.652-10.339-5.146l0,0C7.146,11.847,4.834,9.512,0,9.5l0,0v-1
	c5.205-0.014,7.892,2.652,10.369,5.146l0,0c2.514,2.508,4.816,4.841,9.63,4.853l0,0c4.813-0.012,7.127-2.347,9.646-4.853l0,0
	C32.125,11.153,34.813,8.488,40,8.5l0,0v1c-4.813,0.012-7.128,2.347-9.646,4.853l0,0c-2.476,2.488-5.155,5.146-10.319,5.146l0,0
	C20.023,19.499,20.011,19.499,19.999,19.499L19.999,19.499z"/>
<path fill="#B6E1F8" d="M19.999,23.498c-5.187,0.013-7.864-2.652-10.339-5.145l0,0C7.146,15.847,4.834,13.512,0,13.5l0,0v-1
	c5.205-0.012,7.892,2.652,10.369,5.146l0,0c2.514,2.508,4.816,4.84,9.63,4.853l0,0c4.813-0.013,7.127-2.347,9.646-4.853l0,0
	c2.48-2.494,5.168-5.158,10.354-5.146l0,0v1c-4.813,0.012-7.128,2.347-9.646,4.853l0,0c-2.476,2.488-5.155,5.145-10.319,5.145l0,0
	C20.023,23.498,20.011,23.498,19.999,23.498L19.999,23.498z"/>
<path fill="#B6E1F8" d="M19.999,27.498c-5.187,0.013-7.864-2.652-10.339-5.146l0,0C7.146,19.847,4.834,17.512,0,17.5l0,0v-1
	c5.205-0.012,7.892,2.652,10.369,5.146l0,0c2.514,2.508,4.816,4.841,9.63,4.855l0,0c4.813-0.015,7.127-2.35,9.646-4.855l0,0
	c2.48-2.493,5.168-5.158,10.354-5.146l0,0v1c-4.813,0.013-7.128,2.347-9.646,4.853l0,0c-2.476,2.487-5.155,5.146-10.319,5.146l0,0
	C20.023,27.498,20.011,27.498,19.999,27.498L19.999,27.498z"/>
<path fill="#B6E1F8" d="M19.999,31.498c-5.187,0.014-7.864-2.652-10.339-5.146l0,0C7.146,23.847,4.834,21.512,0,21.499l0,0V20.5
	c5.205-0.012,7.892,2.652,10.369,5.146l0,0c2.514,2.508,4.816,4.841,9.63,4.854l0,0c4.813-0.014,7.127-2.349,9.646-4.854l0,0
	c2.48-2.493,5.168-5.158,10.354-5.146l0,0v0.999c-4.813,0.013-7.128,2.348-9.646,4.854l0,0c-2.475,2.486-5.154,5.146-10.313,5.146
	l0,0C20.027,31.498,20.013,31.498,19.999,31.498L19.999,31.498z"/>
<path fill="#B6E1F8" d="M19.999,35.5c-5.187,0.012-7.864-2.654-10.339-5.148l0,0c-2.514-2.506-4.826-4.84-9.66-4.853l0,0V24.5
	c5.205-0.013,7.892,2.651,10.369,5.146l0,0c2.514,2.508,4.816,4.842,9.63,4.854l0,0c4.813-0.013,7.127-2.349,9.646-4.854l0,0
	c2.48-2.494,5.168-5.158,10.354-5.146l0,0v0.999c-4.813,0.013-7.128,2.347-9.646,4.855l0,0C27.878,32.84,25.199,35.5,20.035,35.5
	l0,0C20.023,35.5,20.011,35.5,19.999,35.5L19.999,35.5z"/>
<path fill="#B6E1F8" d="M19.999,39.499c-5.187,0.013-7.864-2.654-10.339-5.147l0,0C7.146,31.846,4.834,29.511,0,29.499l0,0v-1
	c5.205-0.012,7.892,2.652,10.369,5.148l0,0c2.514,2.505,4.816,4.84,9.63,4.853l0,0c4.813-0.013,7.127-2.348,9.646-4.855l0,0
	c2.48-2.493,5.168-5.157,10.354-5.146l0,0v1c-4.813,0.012-7.128,2.347-9.646,4.854l0,0c-2.476,2.486-5.155,5.146-10.319,5.146l0,0
	C20.023,39.499,20.011,39.499,19.999,39.499L19.999,39.499z"/>
<path fill="#B6E1F8" d="M27.109,0c-1.792,1.442-3.892,2.492-7.11,2.5c-3.22-0.008-5.314-1.058-7.101-2.5h-1.54
	c2.085,1.892,4.601,3.509,8.641,3.5c0.012,0,0.024,0,0.036,0c4.021,0,6.533-1.612,8.617-3.5H27.109z"/>
<path fill="#B6E1F8" d="M31.346,0c-0.593,0.537-1.153,1.094-1.701,1.645c-2.519,2.508-4.833,4.843-9.646,4.855
	c-4.814-0.012-7.116-2.347-9.63-4.853C9.822,1.096,9.262,0.537,8.668,0H7.129C8.016,0.714,8.828,1.523,9.66,2.354
	c2.475,2.492,5.152,5.158,10.339,5.146c0.012,0,0.024,0,0.036,0c5.164,0,7.844-2.658,10.319-5.146C31.187,1.523,32,0.714,32.887,0
	H31.346z"/>
<path fill="#B6E1F8" d="M8.67,40C6.581,38.106,4.056,36.49,0,36.5v0.998C3.233,37.507,5.338,38.557,7.13,40H8.67z"/>
<path fill="#B6E1F8" d="M31.346,40h1.541c1.792-1.443,3.892-2.493,7.112-2.5v-1C35.958,36.49,33.437,38.106,31.346,40z"/>
<path fill="#B6E1F8" d="M11.36,40h1.537c-0.885-0.714-1.697-1.523-2.53-2.354C7.892,35.152,5.206,32.486,0,32.499v1
	c4.834,0.012,7.146,2.348,9.661,4.853C10.208,38.903,10.768,39.462,11.36,40z"/>
<path fill="#B6E1F8" d="M29.645,37.645c-0.835,0.831-1.648,1.641-2.537,2.355h1.542c0.594-0.537,1.154-1.096,1.702-1.646
	c2.52-2.507,4.833-4.843,9.646-4.854v-1C34.812,32.486,32.125,35.152,29.645,37.645z"/>
</svg>
