<?xml version="1.0" encoding="utf-8"?>
<!-- Generator: Adobe Illustrator 16.0.0, SVG Export Plug-In . SVG Version: 6.00 Build 0)  -->
<!DOCTYPE svg PUBLIC "-//W3C//DTD SVG 1.1//EN" "http://www.w3.org/Graphics/SVG/1.1/DTD/svg11.dtd">
<svg version="1.1" id="Layer_1" xmlns="http://www.w3.org/2000/svg" xmlns:xlink="http://www.w3.org/1999/xlink" x="0px" y="0px"
	 width="35.097px" height="124.929px" viewBox="0 0 35.097 124.929" enable-background="new 0 0 35.097 124.929"
	 xml:space="preserve">
<path fill="#FFFFFF" d="M34.906,70.265l-3.814,3.817c-0.108,0.105-0.281,0.188-0.386,0.188c-0.105,0-0.195-0.12-0.195-0.269V38.75
	c0-0.149,0-0.391,0-0.543v-0.752c0-0.151,0-0.393,0-0.542V34.25c0-0.149-0.084-0.186-0.188-0.081l-2.823,2.821
	c-0.103,0.107-0.311,0.19-0.459,0.19h-0.039c-0.148,0-0.269-0.119-0.269-0.269V8.942c0-0.149,0-0.394,0-0.54V7.57
	c0-0.149,0-0.391,0-0.543v-0.83c0-0.148-0.088-0.183-0.192-0.078l-0.99,0.989c-0.104,0.103-0.28,0.19-0.391,0.19
	c-0.107,0-0.285-0.088-0.391-0.19L17.74,0.077c-0.104-0.103-0.276-0.103-0.384,0l-7.028,7.031c-0.104,0.103-0.28,0.19-0.391,0.19
	S9.651,7.21,9.546,7.108L8.558,6.119c-0.105-0.104-0.193-0.07-0.193,0.078v0.83c0,0.152,0,0.394,0,0.543V8.4
	c0,0.148,0,0.393,0,0.542v27.971c0,0.149-0.119,0.269-0.269,0.269H8.057c-0.146,0-0.354-0.083-0.459-0.19l-2.821-2.818
	c-0.104-0.107-0.192-0.071-0.192,0.078v2.662c0,0.149,0,0.391,0,0.542v0.752c0,0.146,0,0.394,0,0.54v35.256
	c0,0.148-0.088,0.269-0.192,0.269c-0.107,0-0.279-0.083-0.387-0.188L0.19,70.265C0.085,70.161,0,70.197,0,70.346v3.656
	c0,0.148,0,0.339,0,0.42c0,0.083,0,0.271,0,0.42v49.815c0,0.149,0.122,0.271,0.271,0.271h6.797c0.146,0,0.27-0.122,0.27-0.271
	v-7.497c0-0.022,0.002-0.042,0.01-0.063v-5.754c0-5.771,4.566-10.45,10.203-10.45c5.634,0,10.203,4.68,10.203,10.45v5.754
	c0.005,0.021,0.008,0.041,0.008,0.063v7.497c0,0.149,0.121,0.271,0.271,0.271h6.793c0.149,0,0.271-0.122,0.271-0.271V74.842
	c0-0.149,0-0.337,0-0.42c0-0.081,0-0.271,0-0.42v-3.656C35.097,70.197,35.011,70.161,34.906,70.265z M19.628,32.978v-0.161V29.18
	v-7.355v-3.827h0.002c0.018-2.654,0.818-4.908,1.938-5.773c1.118,0.865,1.92,3.119,1.937,5.773h0.003v3.827v7.355v3.637v0.161v0.301
	c0,0.146-0.123,0.269-0.271,0.269h-3.336c-0.149,0-0.271-0.122-0.271-0.269V32.978z M15.605,47.794L15.605,47.794
	c0.02-2.654,0.821-4.908,1.939-5.773c1.118,0.865,1.919,3.119,1.937,5.773h0.002v4.14c-0.594-0.259-1.25-0.402-1.938-0.402
	s-1.346,0.144-1.939,0.402V47.794z M11.591,32.978v-0.161V29.18v-7.355v-3.827h0.002c0.018-2.654,0.818-4.908,1.938-5.773
	c1.118,0.865,1.919,3.119,1.938,5.773l0,0v3.827v7.355v3.637v0.161v0.301c0,0.146-0.122,0.269-0.269,0.269h-3.341
	c-0.146,0-0.269-0.122-0.269-0.269V32.978z M9.918,92.26v3.636v0.462c0,0.146-0.12,0.269-0.269,0.269H6.311
	c-0.149,0-0.271-0.122-0.271-0.269v-0.462V92.26v-7.356h0.002c0.018-2.656,0.82-4.911,1.937-5.775
	c1.118,0.864,1.923,3.119,1.937,5.775h0.003V92.26z M11.908,54.054v8.721v2.071v4.099v0.088h-0.017
	c-0.037,0.104-0.135,0.18-0.252,0.18H8.301c-0.12,0-0.218-0.075-0.254-0.18H8.03v-0.088v-4.099v-2.071v-8.721v-6.26h0.002
	c0.018-2.654,0.818-4.908,1.938-5.773c1.117,0.865,1.919,3.119,1.936,5.773h0.003V54.054z M15.62,69.033h-0.015v-0.088v-4.099
	v-2.071v-1.924c0.594,0.259,1.251,0.402,1.939,0.402s1.345-0.144,1.938-0.402v1.924v2.071v4.099v0.088h-0.017
	c-0.036,0.104-0.134,0.18-0.254,0.18h-3.339C15.757,69.212,15.659,69.137,15.62,69.033z M19.542,92.26v3.636v0.462
	c0,0.146-0.121,0.269-0.271,0.269h-3.339c-0.148,0-0.271-0.122-0.271-0.269v-0.462V92.26v-7.356h0.003
	c0.017-2.656,0.818-4.911,1.939-5.775c1.118,0.864,1.919,3.119,1.937,5.775h0.002V92.26z M17.545,59.317
	c-1.79,0-3.241-1.45-3.241-3.24s1.451-3.241,3.241-3.241s3.241,1.451,3.241,3.241S19.335,59.317,17.545,59.317z M23.45,69.212
	c-0.117,0-0.218-0.075-0.254-0.18h-0.018v-0.088v-4.099v-2.071v-8.721v-6.26h0.002c0.02-2.654,0.818-4.908,1.938-5.773
	c1.121,0.865,1.922,3.119,1.937,5.773h0.003v6.26v8.721v2.071v4.099v0.088h-0.016c-0.039,0.104-0.139,0.18-0.256,0.18H23.45z
	 M29.058,92.26v3.636v0.462c0,0.146-0.123,0.269-0.271,0.269h-3.338c-0.146,0-0.27-0.122-0.27-0.269v-0.462V92.26v-7.356h0.003
	c0.017-2.656,0.817-4.911,1.937-5.775c1.119,0.864,1.92,3.119,1.937,5.775h0.003V92.26z"/>
</svg>
