<?xml version="1.0" encoding="utf-8"?>
<!-- Generator: Adobe Illustrator 13.0.0, SVG Export Plug-In  -->
<!DOCTYPE svg PUBLIC "-//W3C//DTD SVG 1.1 Tiny//EN" "http://www.w3.org/Graphics/SVG/1.1/DTD/svg11-tiny.dtd" [
	<!ENTITY ns_flows "http://ns.adobe.com/Flows/1.0/">
]>
<svg version="1.1" baseProfile="tiny"
	 xmlns="http://www.w3.org/2000/svg" xmlns:xlink="http://www.w3.org/1999/xlink" xmlns:a="http://ns.adobe.com/AdobeSVGViewerExtensions/3.0/"
	 x="0px" y="0px" width="28px" height="28px" viewBox="-0.275 -0.275 28 28" xml:space="preserve">
<defs>
</defs>
<path fill="#CE2026" d="M11.061,10.543c0,0.89-0.719,1.609-1.607,1.609c-0.887,0-1.607-0.72-1.607-1.609
	c0-0.891,0.721-1.61,1.607-1.61C10.342,8.933,11.061,9.652,11.061,10.543"/>
<path fill="#CE2026" d="M19.604,10.628c0,0.89-0.719,1.609-1.607,1.609c-0.887,0-1.605-0.72-1.605-1.609
	c0-0.891,0.719-1.61,1.605-1.61C18.885,9.018,19.604,9.737,19.604,10.628"/>
<path fill="#CE2026" d="M19.877,20.441c-1.402-0.854-3.441-1.541-6.168-1.541c-2.68,0-4.705,0.688-6.135,1.541v-1.617
	c1.188-0.809,3.213-1.738,6.135-1.738c2.969,0.015,4.979,0.93,6.168,1.738V20.441z"/>
<path fill="#CE2026" d="M13.725,0C6.146,0,0,6.146,0,13.726c0,7.579,6.146,13.724,13.725,13.724c7.58,0,13.725-6.145,13.725-13.724
	C27.449,6.146,21.305,0,13.725,0 M13.725,26.062c-6.813,0-12.336-5.522-12.336-12.336S6.911,1.389,13.725,1.389
	s12.338,5.523,12.338,12.337S20.538,26.062,13.725,26.062"/>
</svg>
