<?xml version="1.0" encoding="utf-8"?>
<!-- Generator: Adobe Illustrator 15.1.0, SVG Export Plug-In  -->
<!DOCTYPE svg PUBLIC "-//W3C//DTD SVG 1.1//EN" "http://www.w3.org/Graphics/SVG/1.1/DTD/svg11.dtd" [
	<!ENTITY ns_flows "http://ns.adobe.com/Flows/1.0/">
]>
<svg version="1.1"
	 xmlns="http://www.w3.org/2000/svg" xmlns:xlink="http://www.w3.org/1999/xlink" xmlns:a="http://ns.adobe.com/AdobeSVGViewerExtensions/3.0/"
	 x="0px" y="0px" width="40px" height="40px" viewBox="0 -0.001 40 40" enable-background="new 0 -0.001 40 40"
	 xml:space="preserve">
<defs>
</defs>
<rect fill="#0077B4" width="39.999" height="39.999"/>
<path fill="#FFFFFF" d="M6.844,15.441h5.644v18.129H6.844V15.441z M9.668,6.428c1.804,0,3.267,1.465,3.267,3.267
	c0,1.803-1.463,3.268-3.267,3.268c-1.812,0-3.271-1.464-3.271-3.268C6.397,7.894,7.856,6.428,9.668,6.428"/>
<path fill="#FFFFFF" d="M16.026,15.441h5.405v2.478h0.076c0.751-1.427,2.592-2.929,5.336-2.929c5.704,0,6.76,3.753,6.76,8.637v9.943
	h-5.634v-8.814c0-2.104-0.041-4.809-2.931-4.809c-2.934,0-3.382,2.29-3.382,4.653v8.97h-5.63V15.441z"/>
</svg>
