<?xml version="1.0" encoding="utf-8"?>
<!-- Generator: Adobe Illustrator 13.0.0, SVG Export Plug-In  -->
<!DOCTYPE svg PUBLIC "-//W3C//DTD SVG 1.1 Tiny//EN" "http://www.w3.org/Graphics/SVG/1.1/DTD/svg11-tiny.dtd" [
	<!ENTITY ns_flows "http://ns.adobe.com/Flows/1.0/">
]>
<svg version="1.1" baseProfile="tiny"
	 xmlns="http://www.w3.org/2000/svg" xmlns:xlink="http://www.w3.org/1999/xlink" xmlns:a="http://ns.adobe.com/AdobeSVGViewerExtensions/3.0/"
	 x="0px" y="0px" width="40px" height="32px" viewBox="0 -0.579 40 32" xml:space="preserve">
<defs>
</defs>
<path fill="#CC0000" d="M24.452,0.012c0,10.189,0,20.381,0,30.569c-1.797,0.009-3.988,0.208-5.371-0.293
	c-2.752-1-5.271-4.1-7.228-6.057c-0.877-0.908-1.757-1.821-2.636-2.733c-1.533,0-3.062,0-4.594,0
	c-0.416-0.247-1.261-0.044-1.758-0.198c-0.878-0.264-1.79-0.859-2.245-1.562c-0.576-0.885-0.585-2.141-0.585-3.612
	c0-1.547-0.186-3.463,0.291-4.591c1.169-2.764,4.94-2.391,8.889-2.342c1.301-1.303,2.603-2.604,3.906-3.909
	c1.663-1.662,3.248-3.812,5.566-4.783C20.176-0.123,22.39,0.012,24.452,0.012z"/>
<path fill="#CC0000" d="M31.875,0.403c1.354,0.694,2.529,1.944,3.417,3.125c0.576,0.771,1.334,1.504,1.854,2.343
	c1.817,2.923,3.501,8.896,2.147,13.671c-0.725,2.567-1.765,4.658-3.124,6.545c-0.788,1.098-3.001,3.943-4.394,4.201
	c-0.26-1.045-1.079-1.729-1.268-2.832c1.092-0.374,1.986-1.67,2.634-2.539c1.851-2.486,3.422-5.084,3.422-9.473
	c-0.036-0.812-0.066-1.628-0.1-2.44c-0.286-1.203-0.513-2.44-0.977-3.517c-0.644-1.484-1.614-2.869-2.541-4.101
	c-0.534-0.712-2.146-1.589-2.438-2.344C31.098,2.394,31.483,1.211,31.875,0.403z"/>
<path fill="#CC0000" d="M29.041,5.969c1.005,0.341,1.685,1.522,2.245,2.344c0.934,1.366,1.665,2.815,2.152,4.688
	c0.903,3.472-0.548,7.017-1.854,8.985c-0.521,0.774-1.57,2.537-2.543,2.735c-0.454-0.942-0.912-1.889-1.364-2.831
	c2.569-1.702,3.579-6.834,2.05-10.352c-0.345-0.787-0.959-1.569-1.463-2.247c-0.2-0.161-0.394-0.326-0.587-0.49
	C27.651,8.748,28.935,6.365,29.041,5.969z"/>
</svg>
