<?xml version="1.0" encoding="utf-8"?>
<!-- Generator: Adobe Illustrator 16.0.4, SVG Export Plug-In . SVG Version: 6.00 Build 0)  -->
<!DOCTYPE svg PUBLIC "-//W3C//DTD SVG 1.1//EN" "http://www.w3.org/Graphics/SVG/1.1/DTD/svg11.dtd">
<svg version="1.1" id="Layer_1" xmlns="http://www.w3.org/2000/svg" xmlns:xlink="http://www.w3.org/1999/xlink" x="0px" y="0px"
	 width="25px" height="25px" viewBox="0 0 25 25" enable-background="new 0 0 25 25" xml:space="preserve">
<path fill-rule="evenodd" clip-rule="evenodd" fill="#CC0000" d="M17.182,7.847c-0.516,0-1.03,0-1.544,0
	c-0.163-0.495-0.05-1.351-0.05-1.942c0-1.377,0-2.755,0-4.132c-0.611-0.365-2.924-0.149-3.884-0.149c-3.302,0-6.607,0-9.91,0
	C1.574,1.994,1.645,2.77,1.645,3.366c0,1.278,0,2.556,0,3.834c0,4.813,0,9.627,0,14.441c0.073,0.042,0.143,0.089,0.2,0.149
	c2.522,0,5.046,0,7.569,0c0,0.531,0,1.062,0,1.593c-1.893,0-3.786,0-5.678,0c-1.205,0-2.303,0.049-2.987-0.447
	c-1.033-0.753-0.697-3.331-0.697-5.081c0-4.049,0-8.1,0-12.148c0-1.461-0.248-4,0.348-4.88C1.016-0.083,2.45,0.029,3.985,0.029
	c2.889,0,5.777,0,8.664,0c1.277,0,2.955-0.179,3.735,0.349c0.798,0.54,0.797,1.628,0.797,2.988
	C17.182,4.859,17.182,6.354,17.182,7.847z"/>
<path fill-rule="evenodd" clip-rule="evenodd" fill="#CC0000" d="M14.095,6.253c-3.652,0-7.305,0-10.955,0c0-0.515,0-1.029,0-1.543
	c0.666-0.219,2.538-0.05,3.385-0.05c2.507,0,5.014,0,7.521,0C14.179,5.059,14.099,5.765,14.095,6.253z"/>
<path fill-rule="evenodd" clip-rule="evenodd" fill="#CC0000" d="M3.14,7.797c3.12,0,6.241,0,9.361,0c0,0.532,0,1.062,0,1.594
	c-3.104,0-6.208,0-9.312,0C3.056,8.993,3.135,8.286,3.14,7.797z"/>
<path fill-rule="evenodd" clip-rule="evenodd" fill="#CC0000" d="M17.182,9.341c0,5.195,0,10.392,0,15.586
	c-0.917,0.005-2.034,0.106-2.738-0.15c-1.404-0.51-2.688-2.089-3.686-3.087c-0.448-0.464-0.896-0.929-1.344-1.394
	c-0.781,0-1.561,0-2.342,0c-0.212-0.126-0.643-0.023-0.896-0.1c-0.448-0.136-0.913-0.439-1.145-0.797
	c-0.293-0.452-0.298-1.092-0.298-1.843c0-0.789-0.095-1.765,0.148-2.34c0.596-1.409,2.519-1.219,4.532-1.195
	c0.663-0.664,1.327-1.327,1.991-1.992c0.848-0.848,1.656-1.944,2.838-2.439C15.002,9.272,16.13,9.341,17.182,9.341z"/>
<path fill-rule="evenodd" clip-rule="evenodd" fill="#CC0000" d="M20.966,9.54c0.691,0.354,1.29,0.991,1.743,1.594
	c0.294,0.393,0.68,0.767,0.945,1.194c0.927,1.491,1.785,4.536,1.096,6.971c-0.37,1.309-0.901,2.375-1.594,3.337
	c-0.401,0.56-1.53,2.01-2.24,2.141c-0.133-0.532-0.55-0.881-0.647-1.443c0.558-0.192,1.014-0.851,1.344-1.295
	c0.943-1.268,1.744-2.592,1.744-4.83c-0.018-0.414-0.034-0.83-0.051-1.244c-0.145-0.614-0.26-1.245-0.498-1.793
	c-0.328-0.757-0.821-1.463-1.294-2.091c-0.273-0.363-1.095-0.81-1.245-1.195C20.571,10.555,20.768,9.952,20.966,9.54z"/>
<path fill-rule="evenodd" clip-rule="evenodd" fill="#CC0000" d="M9.414,10.885c0,0.53,0,1.062,0,1.593c-2.092,0-4.184,0-6.274,0
	c0-0.515,0-1.029,0-1.543c0.508-0.168,1.386-0.05,1.991-0.05C6.558,10.885,7.985,10.885,9.414,10.885z"/>
<path fill-rule="evenodd" clip-rule="evenodd" fill="#CC0000" d="M19.521,12.378c0.513,0.174,0.86,0.776,1.145,1.195
	c0.476,0.697,0.849,1.436,1.097,2.391c0.461,1.77-0.279,3.578-0.945,4.581c-0.265,0.395-0.801,1.294-1.296,1.394
	c-0.232-0.48-0.465-0.963-0.696-1.443c1.31-0.868,1.825-3.484,1.045-5.278c-0.175-0.402-0.489-0.8-0.746-1.146
	c-0.101-0.082-0.2-0.166-0.299-0.25C18.813,13.795,19.467,12.58,19.521,12.378z"/>
</svg>
