<?xml version="1.0" encoding="utf-8"?>
<!-- Generator: Adobe Illustrator 15.1.0, SVG Export Plug-In  -->
<!DOCTYPE svg PUBLIC "-//W3C//DTD SVG 1.1//EN" "http://www.w3.org/Graphics/SVG/1.1/DTD/svg11.dtd" [
	<!ENTITY ns_flows "http://ns.adobe.com/Flows/1.0/">
]>
<svg version="1.1"
	 xmlns="http://www.w3.org/2000/svg" xmlns:xlink="http://www.w3.org/1999/xlink" xmlns:a="http://ns.adobe.com/AdobeSVGViewerExtensions/3.0/"
	 x="0px" y="0px" width="40px" height="40px" viewBox="0 0 40 40" enable-background="new 0 0 40 40" xml:space="preserve">
<defs>
</defs>
<rect fill="#54B262" width="40" height="40"/>
<path fill="#FFFFFF" d="M31.153,9.476C28.284,6.588,24.458,5,20.375,5C11.97,5,5.137,11.833,5.137,20.238
	c0,2.682,0.7,5.313,2.033,7.619L5,35.749l8.08-2.118c2.221,1.213,4.732,1.862,7.277,1.862l0,0l0,0
	c8.405,0,15.238-6.834,15.238-15.238C35.63,16.189,34.041,12.345,31.153,9.476 M20.375,32.913L20.375,32.913
	c-2.272,0-4.51-0.614-6.458-1.76l-0.461-0.273l-4.801,1.265l1.282-4.681l-0.308-0.479c-1.247-2.017-1.913-4.356-1.913-6.748
	c0-6.987,5.688-12.658,12.675-12.658c3.383,0,6.561,1.315,8.951,3.707c2.393,2.391,3.707,5.569,3.707,8.968
	C33.05,27.241,27.361,32.913,20.375,32.913 M27.327,23.432c-0.375-0.188-2.255-1.109-2.596-1.246
	c-0.342-0.12-0.598-0.188-0.854,0.188c-0.257,0.376-0.991,1.248-1.214,1.486c-0.221,0.256-0.443,0.291-0.819,0.102
	c-0.376-0.188-1.606-0.597-3.058-1.896c-1.127-1.008-1.896-2.254-2.118-2.63c-0.222-0.376-0.017-0.581,0.171-0.769
	c0.17-0.17,0.376-0.444,0.564-0.666c0.188-0.222,0.256-0.375,0.375-0.632c0.12-0.257,0.069-0.479-0.034-0.667
	c-0.102-0.188-0.854-2.067-1.179-2.835c-0.308-0.735-0.614-0.649-0.854-0.649c-0.222-0.018-0.479-0.018-0.735-0.018
	c-0.256,0-0.666,0.103-1.007,0.479c-0.342,0.376-1.333,1.298-1.333,3.178c0,1.879,1.367,3.689,1.554,3.946
	c0.188,0.256,2.683,4.1,6.509,5.757c0.905,0.393,1.623,0.632,2.17,0.803c0.905,0.29,1.741,0.257,2.392,0.153
	c0.734-0.103,2.254-0.922,2.563-1.811c0.324-0.888,0.324-1.657,0.222-1.811C27.96,23.723,27.703,23.621,27.327,23.432"/>
</svg>
