<?xml version="1.0" encoding="utf-8"?>
<!-- Generator: Adobe Illustrator 15.1.0, SVG Export Plug-In  -->
<!DOCTYPE svg PUBLIC "-//W3C//DTD SVG 1.1//EN" "http://www.w3.org/Graphics/SVG/1.1/DTD/svg11.dtd" [
	<!ENTITY ns_flows "http://ns.adobe.com/Flows/1.0/">
]>
<svg version="1.1"
	 xmlns="http://www.w3.org/2000/svg" xmlns:xlink="http://www.w3.org/1999/xlink" xmlns:a="http://ns.adobe.com/AdobeSVGViewerExtensions/3.0/"
	 x="0px" y="0px" width="40px" height="40px" viewBox="0 0 40 40" enable-background="new 0 0 40 40" xml:space="preserve">
<defs>
</defs>
<rect fill="#CC2920" width="40" height="40"/>
<path fill="#FFFFFF" d="M17.215,3.908h-1.823l-1.229,4.724l-1.278-4.724h-1.897c0.379,1.114,0.775,2.235,1.155,3.352
	c0.578,1.678,0.939,2.942,1.102,3.807v4.874h1.802v-4.874L17.215,3.908z M22.03,13.036V9.896c0-0.958-0.164-1.658-0.505-2.112
	c-0.45-0.612-1.081-0.919-1.895-0.919c-0.81,0-1.443,0.307-1.892,0.919c-0.347,0.454-0.509,1.154-0.509,2.112v3.141
	c0,0.954,0.163,1.66,0.509,2.11c0.449,0.611,1.082,0.918,1.892,0.918c0.814,0,1.445-0.307,1.895-0.918
	C21.866,14.696,22.03,13.99,22.03,13.036z M20.405,13.343c0,0.83-0.251,1.244-0.775,1.244c-0.524,0-0.776-0.415-0.776-1.244V9.57
	c0-0.83,0.252-1.243,0.776-1.243c0.523,0,0.775,0.413,0.775,1.243V13.343z M28.039,15.94V6.974h-1.625v6.853
	c-0.361,0.509-0.703,0.761-1.027,0.761c-0.219,0-0.346-0.128-0.38-0.38c-0.021-0.053-0.021-0.251-0.021-0.632V6.974h-1.619v7.09
	c0,0.632,0.054,1.062,0.145,1.333c0.161,0.455,0.522,0.668,1.046,0.668c0.592,0,1.209-0.361,1.856-1.104v0.979H28.039z"/>
<path fill="#FFFFFF" d="M33.301,26.822c0,2.073-0.001,4.273-0.467,6.288c-0.324,1.414-1.48,2.457-2.874,2.614
	c-3.299,0.367-6.64,0.369-9.961,0.367c-3.325,0.002-6.663,0-9.962-0.367c-1.394-0.157-2.55-1.2-2.875-2.614
	c-0.463-2.015-0.463-4.215-0.463-6.288c0-2.077,0.004-4.274,0.468-6.29c0.325-1.414,1.482-2.458,2.875-2.613
	c3.299-0.369,6.638-0.37,9.961-0.369c3.324-0.001,6.663,0,9.961,0.369c1.395,0.156,2.551,1.199,2.876,2.613
	C33.303,22.548,33.301,24.745,33.301,26.822z"/>
<path fill="#CC2920" d="M14.287,22.345v-1.676H8.68v1.676h1.891v10.232h1.789V22.345H14.287z M17.535,32.577v-0.968
	c-0.638,0.732-1.245,1.091-1.836,1.091c-0.519,0-0.876-0.211-1.036-0.66c-0.089-0.271-0.142-0.693-0.142-1.32v-7.016h1.607v6.532
	c0,0.376,0,0.573,0.014,0.626c0.04,0.248,0.161,0.375,0.376,0.375c0.322,0,0.662-0.249,1.017-0.752v-6.781h1.61v8.873H17.535z
	 M23.645,30.042c0,0.802-0.237,1.195-0.699,1.195c-0.266,0-0.533-0.127-0.802-0.394v-5.41c0.269-0.265,0.536-0.391,0.802-0.391
	c0.462,0,0.699,0.412,0.699,1.211V30.042z M25.251,29.915V26.38c0-0.838-0.055-1.427-0.161-1.783
	c-0.215-0.664-0.645-1.001-1.285-1.001c-0.592,0-1.143,0.325-1.661,0.962v-3.889h-1.608v11.909h1.608v-0.859
	c0.536,0.663,1.088,0.982,1.661,0.982c0.641,0,1.07-0.337,1.285-0.997C25.196,31.326,25.251,30.735,25.251,29.915z M29.711,27.094
	h-1.606v-0.819c0-0.819,0.27-1.231,0.807-1.231c0.531,0,0.8,0.412,0.8,1.231V27.094z M31.319,29.738v-0.234h-1.642
	c0,0.646-0.019,1-0.034,1.088c-0.092,0.43-0.323,0.646-0.719,0.646c-0.551,0-0.82-0.409-0.82-1.232v-1.571h3.215v-1.837
	c0-0.949-0.161-1.644-0.498-2.091c-0.45-0.608-1.09-0.91-1.896-0.91c-0.82,0-1.462,0.302-1.925,0.91
	c-0.344,0.447-0.497,1.142-0.497,2.091v3.107c0,0.941,0.175,1.643,0.516,2.086c0.465,0.605,1.104,0.91,1.947,0.91
	c0.838,0,1.498-0.319,1.943-0.963c0.195-0.285,0.32-0.608,0.376-0.963C31.299,30.612,31.319,30.255,31.319,29.738z"/>
</svg>
