<?xml version="1.0" encoding="utf-8"?>
<!-- Generator: Adobe Illustrator 16.0.4, SVG Export Plug-In . SVG Version: 6.00 Build 0)  -->
<!DOCTYPE svg PUBLIC "-//W3C//DTD SVG 1.1//EN" "http://www.w3.org/Graphics/SVG/1.1/DTD/svg11.dtd">
<svg version="1.1" id="Layer_1" xmlns="http://www.w3.org/2000/svg" xmlns:xlink="http://www.w3.org/1999/xlink" x="0px" y="0px"
	 width="26px" height="21px" viewBox="0 0 26 21" enable-background="new 0 0 26 21" xml:space="preserve">
<g>
	<path fill-rule="evenodd" clip-rule="evenodd" fill="#CB1114" d="M20.959,0H4.351C1.957,0,0,1.956,0,4.345v8.045
		c0,2.391,1.957,4.346,4.351,4.346h0.592v3.559l3.56-3.559h12.457c2.393,0,4.35-1.955,4.35-4.346V4.345
		C25.309,1.956,23.352,0,20.959,0z M13.581,3.099l-0.339,6.979h-1.756l-0.339-6.979H13.581z M12.363,13.652h-0.031
		c-0.8,0-1.354-0.602-1.354-1.402c0-0.832,0.569-1.403,1.385-1.403c0.817,0,1.355,0.571,1.371,1.403
		C13.734,13.05,13.195,13.652,12.363,13.652z"/>
</g>
</svg>
