<?xml version="1.0" encoding="utf-8"?>
<!-- Generator: Adobe Illustrator 13.0.0, SVG Export Plug-In  -->
<!DOCTYPE svg PUBLIC "-//W3C//DTD SVG 1.1 Tiny//EN" "http://www.w3.org/Graphics/SVG/1.1/DTD/svg11-tiny.dtd" [
	<!ENTITY ns_flows "http://ns.adobe.com/Flows/1.0/">
]>
<svg version="1.1" baseProfile="tiny"
	 xmlns="http://www.w3.org/2000/svg" xmlns:xlink="http://www.w3.org/1999/xlink" xmlns:a="http://ns.adobe.com/AdobeSVGViewerExtensions/3.0/"
	 x="0px" y="0px" width="28px" height="28px" viewBox="-0.275 -0.276 28 28" xml:space="preserve">
<defs>
</defs>
<path fill="#489A62" d="M13.724,0C6.145,0,0,6.145,0,13.725c0,7.579,6.145,13.724,13.724,13.724c7.58,0,13.726-6.145,13.726-13.724
	C27.45,6.145,21.304,0,13.724,0"/>
<path fill="#FFFFFF" d="M11.06,10.542c0,0.89-0.72,1.611-1.607,1.611c-0.888,0-1.607-0.721-1.607-1.611
	c0-0.889,0.719-1.609,1.607-1.609C10.34,8.933,11.06,9.653,11.06,10.542"/>
<path fill="#FFFFFF" d="M19.604,10.627c0,0.89-0.721,1.611-1.607,1.611c-0.888,0-1.607-0.721-1.607-1.611s0.72-1.61,1.607-1.61
	C18.883,9.017,19.604,9.737,19.604,10.627"/>
<path fill="#FFFFFF" d="M7.573,17.083c1.401,0.855,3.441,1.541,6.167,1.541c2.679,0,4.704-0.686,6.135-1.541v1.617
	c-1.188,0.809-3.213,1.74-6.135,1.74c-2.969-0.016-4.979-0.932-6.167-1.74V17.083z"/>
</svg>
