<?xml version="1.0" encoding="utf-8"?>
<!-- Generator: Adobe Illustrator 16.0.0, SVG Export Plug-In . SVG Version: 6.00 Build 0)  -->
<!DOCTYPE svg PUBLIC "-//W3C//DTD SVG 1.1//EN" "http://www.w3.org/Graphics/SVG/1.1/DTD/svg11.dtd">
<svg version="1.1" id="Layer_1" xmlns="http://www.w3.org/2000/svg" xmlns:xlink="http://www.w3.org/1999/xlink" x="0px" y="0px"
	 width="24.215px" height="23.997px" viewBox="0 0 24.215 23.997" enable-background="new 0 0 24.215 23.997" xml:space="preserve">
<path fill="#2A5587" d="M24.213,21.113c0.146,0.04-5.532-5.532-5.532-5.532c0.97-1.561,1.528-3.397,1.528-5.365
	c0-5.633-4.582-10.212-10.213-10.212c-5.63,0-10.212,4.58-10.212,10.212c0,5.631,4.582,10.212,10.212,10.212
	c2.191,0,4.221-0.695,5.887-1.874l5.443,5.442C21.327,23.997,24.067,21.073,24.213,21.113z M3.044,10.216
	c0-3.834,3.119-6.953,6.952-6.953c3.834,0,6.952,3.119,6.952,6.953c0,3.833-3.117,6.953-6.952,6.953
	C6.163,17.168,3.044,14.049,3.044,10.216z"/>
</svg>
