<?xml version="1.0" encoding="utf-8"?>
<!-- Generator: Adobe Illustrator 13.0.0, SVG Export Plug-In  -->
<!DOCTYPE svg PUBLIC "-//W3C//DTD SVG 1.1 Tiny//EN" "http://www.w3.org/Graphics/SVG/1.1/DTD/svg11-tiny.dtd" [
	<!ENTITY ns_flows "http://ns.adobe.com/Flows/1.0/">
]>
<svg version="1.1" baseProfile="tiny"
	 xmlns="http://www.w3.org/2000/svg" xmlns:xlink="http://www.w3.org/1999/xlink" xmlns:a="http://ns.adobe.com/AdobeSVGViewerExtensions/3.0/"
	 x="0px" y="0px" width="28px" height="28px" viewBox="-0.275 -0.276 28 28" xml:space="preserve">
<defs>
</defs>
<path fill="#CE2026" d="M13.725,0C6.146,0,0,6.145,0,13.725c0,7.579,6.146,13.724,13.725,13.724c7.58,0,13.725-6.145,13.725-13.724
	C27.449,6.145,21.305,0,13.725,0"/>
<path fill="#FFFFFF" d="M11.061,10.542c0,0.89-0.719,1.61-1.607,1.61c-0.887,0-1.607-0.72-1.607-1.61s0.721-1.61,1.607-1.61
	C10.342,8.932,11.061,9.652,11.061,10.542"/>
<path fill="#FFFFFF" d="M19.604,10.627c0,0.89-0.719,1.61-1.607,1.61c-0.887,0-1.605-0.72-1.605-1.61s0.719-1.61,1.605-1.61
	C18.885,9.017,19.604,9.737,19.604,10.627"/>
<path fill="#FFFFFF" d="M19.877,20.441c-1.402-0.854-3.441-1.541-6.168-1.541c-2.68,0-4.705,0.688-6.135,1.541v-1.617
	c1.188-0.809,3.213-1.74,6.135-1.74c2.969,0.016,4.979,0.932,6.168,1.74V20.441z"/>
</svg>
