<?xml version="1.0" encoding="utf-8"?>
<!-- Generator: Adobe Illustrator 15.1.0, SVG Export Plug-In  -->
<!DOCTYPE svg PUBLIC "-//W3C//DTD SVG 1.1//EN" "http://www.w3.org/Graphics/SVG/1.1/DTD/svg11.dtd" [
	<!ENTITY ns_flows "http://ns.adobe.com/Flows/1.0/">
]>
<svg version="1.1"
	 xmlns="http://www.w3.org/2000/svg" xmlns:xlink="http://www.w3.org/1999/xlink" xmlns:a="http://ns.adobe.com/AdobeSVGViewerExtensions/3.0/"
	 x="0px" y="0px" width="40px" height="40px" viewBox="0 0 40 40" enable-background="new 0 0 40 40" xml:space="preserve">
<defs>
</defs>
<rect fill="#DD5044" width="40" height="40"/>
<path id="SVGID_2_" fill="#FFFFFF" d="M14.124,31.248C8.247,31.248,3.5,26.484,3.5,20.625C3.5,14.747,8.264,10,14.124,10
	c2.759,0,5.278,1.063,7.163,2.793L18.15,15.86c-1.096-0.925-2.501-1.474-4.043-1.474c-3.461,0-6.254,2.793-6.254,6.254
	c0,3.462,2.793,6.255,6.254,6.255c2.673,0,4.953-1.679,5.843-4.044h-5.98v-4.438h5.98h4.523h0.035
	c0.153,0.72,0.239,1.457,0.239,2.227C24.748,26.484,20.002,31.248,14.124,31.248L14.124,31.248z M33.299,21.43v3.701h-2.69V21.43
	h-3.701v-2.69h3.701v-3.702h2.69v3.702H37v2.69H33.299L33.299,21.43z"/>
</svg>
