<?xml version="1.0" encoding="utf-8"?>
<!-- Generator: Adobe Illustrator 13.0.0, SVG Export Plug-In  -->
<!DOCTYPE svg PUBLIC "-//W3C//DTD SVG 1.1 Tiny//EN" "http://www.w3.org/Graphics/SVG/1.1/DTD/svg11-tiny.dtd" [
	<!ENTITY ns_flows "http://ns.adobe.com/Flows/1.0/">
]>
<svg version="1.1" baseProfile="tiny"
	 xmlns="http://www.w3.org/2000/svg" xmlns:xlink="http://www.w3.org/1999/xlink" xmlns:a="http://ns.adobe.com/AdobeSVGViewerExtensions/3.0/"
	 x="0px" y="0px" width="81px" height="80px" viewBox="-1 0 81 80" xml:space="preserve">
<defs>
</defs>
<rect width="80" height="80"/>
<path fill="#FFFFFF" d="M8.89,58.788V39.83h5.433c6.416,0,9.971,3.208,9.971,8.93c0,6.85-3.873,10.028-10.086,10.028H8.89z
	 M12.358,55.927h1.994c3.814,0,6.3-2.052,6.3-6.993c0-4.104-2.485-6.243-6.56-6.243h-1.734V55.927z"/>
<path fill="#FFFFFF" d="M28.975,38.559c1.243,0,1.937,0.78,1.937,1.878c0,1.012-0.693,1.85-1.937,1.85
	c-1.243,0-1.907-0.751-1.907-1.85C27.068,39.426,27.732,38.559,28.975,38.559z M30.623,58.788h-3.266V44.569l3.266-0.145V58.788z"/>
<path fill="#FFFFFF" d="M38.541,56.014h3.41c3.063,0,4.364,1.214,4.364,3.525c0,2.717-2.254,4.913-7.456,4.913
	c-4.075,0-5.954-1.445-5.954-3.67c0-1.358,0.751-2.485,2.167-3.093v-0.087c-0.665-0.346-1.127-1.068-1.127-1.906
	c0-0.896,0.549-1.734,1.59-2.139v-0.087c-1.301-0.723-2.052-1.937-2.052-3.786c0-3.468,2.341-5.347,5.954-5.347
	c0.78,0,1.474,0.087,2.196,0.289h4.625v2.168h-2.197v0.087c0.607,0.462,1.127,1.444,1.127,2.688c0,3.149-2.139,4.797-6.069,4.797
	c-0.636,0-1.243-0.087-1.792-0.23c-0.376,0.202-0.607,0.549-0.607,0.896C36.72,55.667,37.211,56.014,38.541,56.014z M39.148,62.025
	c3.121,0,4.248-0.781,4.248-1.908c0-0.838-0.521-1.301-1.937-1.329l-4.739-0.145c-0.549,0.376-0.78,0.838-0.78,1.503
	C35.94,61.273,36.922,62.025,39.148,62.025z M42.153,49.31c0-1.734-0.954-2.659-2.774-2.659c-1.618,0-2.774,0.925-2.774,2.861
	c0,1.85,1.041,2.629,2.716,2.629C41.113,52.141,42.153,51.303,42.153,49.31z"/>
<path fill="#E17000" d="M50.406,38.559c1.243,0,1.936,0.78,1.936,1.878c0,1.012-0.693,1.85-1.936,1.85s-1.907-0.751-1.907-1.85
	C48.499,39.426,49.163,38.559,50.406,38.559z M52.053,58.788h-3.266V44.569l3.266-0.145V58.788z"/>
<path fill="#E17000" d="M55.88,58.788V39.83h5.433c6.417,0,9.971,3.208,9.971,8.93c0,6.85-3.873,10.028-10.085,10.028H55.88z
	 M59.348,55.927h1.994c3.814,0,6.299-2.052,6.299-6.993c0-4.104-2.485-6.243-6.56-6.243h-1.733V55.927z"/>
</svg>
